<svg id="Calque_1" data-name="Calque 1" xmlns="http://www.w3.org/2000/svg" viewBox="0 0 151.02 174.43"><defs><style>.cls-1,.cls-2{fill:#5692ce;}.cls-2{fill-rule:evenodd;}</style></defs><path class="cls-1" d="M22.13,171.41c0-10.81,7.89-19.16,19-19.16s19,8.35,19,19.16-7.87,19.15-19,19.15-19-8.34-19-19.15m32.75,0c0-8-5.4-14.52-13.75-14.52s-13.74,6.53-13.74,14.52,5.4,14.52,13.74,14.52,13.75-6.54,13.75-14.52" transform="translate(-22.13 -16.14)"/><path class="cls-1" d="M92.62,161.06a11.19,11.19,0,0,0-8.8-4.17c-8.19,0-13.59,6.54-13.59,14.82,0,7.68,5.09,14.22,13.59,14.22a11.22,11.22,0,0,0,9.52-4.9l4.18,3.14a17,17,0,0,1-13.8,6.39c-11.59,0-18.74-9.68-18.74-18.85,0-11.32,7.77-19.46,19-19.46,4.79,0,9.84,1.8,12.77,5.67Z" transform="translate(-22.13 -16.14)"/><polygon class="cls-1" points="81.36 137.04 86.3 137.04 86.3 152.18 105.19 152.18 105.19 137.04 110.14 137.04 110.14 173.5 105.19 173.5 105.19 156.81 86.3 156.81 86.3 173.5 81.36 173.5 81.36 137.04"/><path class="cls-1" d="M153.07,153.18h4.48l15.6,36.46h-5.76l-3.66-9H146.38l-3.6,9H137Zm8.86,23.12-6.8-16.73H155l-6.9,16.73Z" transform="translate(-22.13 -16.14)"/><path class="cls-2" d="M106.71,76.94a.92.92,0,0,0-1,.22l-.81.63s-.22.31,0,.48.62-.22.62-.22l.81-.44.49-.24s.53-.17-.05-.43m20.93-10.43a29.26,29.26,0,0,1-.47,4.09c.18.45,1.06,1.06,1.12,1.53s-.8,1.15-1.1.69a1.1,1.1,0,0,0-.43-.4,29.4,29.4,0,0,1-7.1,12.9l2.44,2.43a1.7,1.7,0,0,0,.05-.71c-.14-.85.14-1.12.31-1.12a1.64,1.64,0,0,1,1.6,1.08c.12.36.18,0,.4.63a2.28,2.28,0,0,0,.13,1.07,5.12,5.12,0,0,1,.23.6,1.74,1.74,0,0,1-.1.75,36.22,36.22,0,0,0,9.92-23.54Zm-9,28.74a38.34,38.34,0,0,0,4-3.15l-.22-.22a.67.67,0,0,1-.63-.12,2.25,2.25,0,0,1-.34-.85l-3.67-3.67a4.65,4.65,0,0,1-.78.8l0,.9c2.32,1.11,2.86,2.07,2.82,2.57s-1.63,1.86-1.63,2.29.6.76.56,1.18a.53.53,0,0,1-.09.27M99,95.41v6.29a38,38,0,0,0,5.57-.62,5.68,5.68,0,0,0-1.73-1,3.79,3.79,0,0,1-1.12-1.85c-.38-1,.73-1.07.46-1.8S99.58,96,99.58,96s.33.45-.63-.55m-2.69-.56a30.24,30.24,0,0,1-18.44-7.2c.28.28.57.56.85.81,1.41,1.22,1.57,1.94,1.49,2.59s-3.16.57-3.16.57l-.08,0a7.55,7.55,0,0,1-3.32.74,1.69,1.69,0,0,1-.82-.51l-.28.29a37.24,37.24,0,0,0,23.76,9.53ZM67.63,69.06c-.1-.84-.19-1.69-.23-2.55h-7a36.25,36.25,0,0,0,1.74,9.81.19.19,0,0,0,.09,0c.27-.14,0-.31.15-.67s.45,0,.57-.24-.12-.37-.12-.64.35-.35.39-.58-.16.15-.23-.42a3.07,3.07,0,0,1,.31-1.33,10.36,10.36,0,0,1,.53-1.2c.31-.64,1.5-1,1.91-1.4.08-.08.31-.84,1-1a1.15,1.15,0,0,1,.85.21m-.23-5.25a29.45,29.45,0,0,1,8-18.93L70.53,40A36.27,36.27,0,0,0,60.41,63.81ZM77.36,43a30.18,30.18,0,0,1,18.9-7.61V28.55a37.33,37.33,0,0,0-23.8,9.57ZM99,35.42a30.4,30.4,0,0,1,15.25,4.92,10,10,0,0,1-.47-.93c-.11-.22.37-.38.37-.38-.8-1.1-.95-1.57-.68-1.8s1.06.42,1.48,1.11,1,1.33,1.34,1.41,1.1,0,1.28.72a13.13,13.13,0,0,1,.64,1.73,1.82,1.82,0,0,0,.11.38l2-2a2.3,2.3,0,0,0-1.14-1.27l-1.47.5s-.53.27-.7-.09a3.12,3.12,0,0,1-.18-1.07s-.58-.36-.58-.66.31-1.26.09-1.61a2.33,2.33,0,0,0-.67-.62,12.17,12.17,0,0,0-.44-1.74,7.66,7.66,0,0,0-1.43-1.56,1.22,1.22,0,0,1,0-.24A37.62,37.62,0,0,0,99,28.56Zm20.88,9.69.55.62c.54.62,1.06,1.26,1.54,1.93.25.33.48.66.72,1a5.1,5.1,0,0,0,.72-.42c.46-.26.7,0,.85.59s-.89.51-.53,1.07c.12.19.95-.07,1.06,0a.59.59,0,0,1-.08.81c-.21.24-.43.33-.46.54l.28.53c.39.16,1.08-.18,1.08.43s.56,1.23.64,1.85a1.52,1.52,0,0,1-.3,1c.27.75.51,1.5.72,2.28a.79.79,0,0,1,.65-.18.56.56,0,0,1,0,.13,5.32,5.32,0,0,1,0,1,9.26,9.26,0,0,1-.18,1.16c.07.37.14.74.19,1.11a8.64,8.64,0,0,1,.25,1.47l0,0c0,.58.1,1.17.13,1.76h7a36,36,0,0,0-3-13.09l-.36,0a2.33,2.33,0,0,1-1,.4c-.45,0-.66-.58-.66-.58s-2-2.58-2.27-2.81a1.83,1.83,0,0,0-1.12-.44c-.8-.09-.66-.44-.66-.44a15.57,15.57,0,0,0-1.66-.66L123.35,45a1.36,1.36,0,0,0,0-.54,5.43,5.43,0,0,0-1.43-.18,4.6,4.6,0,0,1-.9-.6l-1.15,1.15a.53.53,0,0,1,0,.28m27.37,20c0,27.06-22.24,49-49.67,49s-49.68-21.94-49.68-49,22.24-49,49.68-49,49.67,21.93,49.67,49M97.65,56.85h-.12a8.59,8.59,0,0,0-1.78.19c.13.07.29.14.21.37-.16.42.3,1.49.3,1.49-.68,1.25-3.09,1.64-3.09,1.64-.43.31-.23.83-.76,1.14a2.58,2.58,0,0,0-1,.88c-.26.39-.19.76-.34,1.22s.19.69.08,1a11.81,11.81,0,0,1-.46,1.57c-.2.26-.61-.12-.88-.2s-.41-1.4-.57-1.59-.08,0-.11,0a5.62,5.62,0,0,0,0,.58,7.81,7.81,0,0,0,.17,1.69c.33-.13.27-.25.38-.26.84,0,.31.54.69.54s.61-.17.65-.94a.8.8,0,0,1,1-.77c.23,0,0,.56.14.71s.38,0,.38.5-.87,1-1,1.73-.32.87-.62.91-.35-.81-.59-.4.55,1.15.55,1.15a2.35,2.35,0,0,0,.8-1.07c.15-.34.5-.29.89-.52s.41-1.37.37-1.64.43-.21,2.26-.3,1.74.49,1.63,1,.26-.12.26.46-.68,1.11-.86,1.6.26.53,0,.76a1.87,1.87,0,0,0-.35.5c-1,1.15-1.06.46-1.67.73a2.6,2.6,0,0,1-1.3.14l-.37.13a8.5,8.5,0,0,0,5,1.61,8.66,8.66,0,0,0,1.25-.09c.2-.95.52-2.51,1.26-2.9s1.67.23,2.09,0a1.38,1.38,0,0,0,.66-.84,2.59,2.59,0,0,0,.19-1.56c-.19-.53-.58-.31-.7-.69s.72-.39.31-.91c-.62-.79-.5-1.37-.73-1.56s-.38,0-.65-.3.12-.62.15-1,.66-.46.58-.8-.42,0-.5-.46a2,2,0,0,1,.27-1s-1,0-1.1-.32a3.45,3.45,0,0,0-1.42-1.54,3.4,3.4,0,0,0-1.8-.11,2.87,2.87,0,0,0-1-1.1c-.64-.88-.22-.77.12-1.16s1,0,1.13-.07,0-.09,0-.14M126.5,38.17a40.85,40.85,0,0,1,4.25,5.29,4.13,4.13,0,0,1,1.05,1.35c.06.21.08.36.11.49l.32.55.15.17a5.31,5.31,0,0,1,1,1.59,2.55,2.55,0,0,1,.24,1,38.61,38.61,0,0,1,3.68,15.24h7.15a45.82,45.82,0,0,0-13-30.66ZM100,25.91a40,40,0,0,1,16.27,4.53l1.38-.57s-.45-.1.21,0a5.21,5.21,0,0,1,1.26.31c.79.27.84,0,1.15.13s.41.67.81,1,.31,0,.84.3a4.21,4.21,0,0,1,1.38,1.42c.18.37.49-.18.8,1.65,0,0,.62.67,1,1.11l4.54-4.54A47.14,47.14,0,0,0,99,18.85v5.76c.06,0,.17-.05.33.05.49.32.71.27.66.8,0,.14,0,.3,0,.45M70.56,36.22a39.92,39.92,0,0,1,25.7-10.35v-7A47.18,47.18,0,0,0,65.55,31.2ZM57.72,63.81A38.87,38.87,0,0,1,68.63,38.09l-5-5A45.8,45.8,0,0,0,50.56,63.81ZM68.65,92.2c-.85-.88-1.66-1.81-2.43-2.77-.69-.26-.67-.47-1.39-1.05s-.35-1.26-.68-1.42c-.16-.06-.16.28-.24.39s-.46.17-.92,0a2.32,2.32,0,0,1-.88-.79c-.8-.58-.67-1.32-.83-1.55s-.64,0-.9-.08-.27-.53-.54-.67a1.06,1.06,0,0,0-.69,0,9.89,9.89,0,0,0-1-1.41s0,.7-.62.7S56.1,82.2,55.83,82s-.42.29-.8,0a4.45,4.45,0,0,1-.77-1.83,8.19,8.19,0,0,0-.45-1A8.35,8.35,0,0,1,54,76.72c.19-.48.37,0,.52-.75s.6-.69.94-.73.48.1.63.37.65,0,.87-.08,0-.44,0-.63.54-.1.88-.29.88-.3,1,0l0,.11a38.63,38.63,0,0,1-1.18-8.24H50.56a45.75,45.75,0,0,0,13.09,30.7Zm27.61,12.2A40,40,0,0,1,70.59,94.08l-5,5a47.14,47.14,0,0,0,30.68,12.33ZM124.54,94a39.51,39.51,0,0,1-7.28,5.27l-.06.21a13.82,13.82,0,0,1-1.87,3c-.27.46-.43.15-1,.62s-.24.79-.92,1.05l-1.11.46a2.58,2.58,0,0,1-3.9-.11c-.34-.27-1-.37-1.37-.8l-.27-.31a41,41,0,0,1-7.82,1v7A47.28,47.28,0,0,0,129.56,99Zm12.79-27.48a39,39,0,0,1-10.86,25.61l5,5a45.76,45.76,0,0,0,13-30.62Zm-16.45-2.7H125a25.66,25.66,0,0,0-.36-3.29,5,5,0,0,1-.6.9c-.41.46-.88.19-1.34.41s-.12.66-.2,1,.43.19.23.64-.68.2-.94.2-.53-.26-.86.18m-8-12c.34.39.66.78,1,1.18a1.17,1.17,0,0,1,.82-.06c.83.16,2.1.36,2.72.44.78.1,1,1.55,1.44,1.74s.34.35.38.76-.34.31-.27.62.34.61.65.3a1.88,1.88,0,0,1,1.68-.61c1.34.24.87,1,1.41,1.18s.34.26.53.5-.07.54-.38.64-.31.35-.31.58-.29.53-.33.72-.27.85,0,.85.52.26.75,0,1.28-1.34,1.27-1.91v-.14a26.46,26.46,0,0,0-1-3.23,2.15,2.15,0,0,0-.41-.57,16.3,16.3,0,0,1-2.54-1.71c-.31-.46.07-.57.37-.87a1.44,1.44,0,0,0,.38-1.22c-.16-.25-.32-.5-.49-.75-.34-.43-1-1.25-1.66-2.22-.32-.38-.64-.76-1-1.13ZM99,45a20.4,20.4,0,0,1,12,4.9L115.86,45A27.48,27.48,0,0,0,99,38.11ZM84.21,49.86A20.48,20.48,0,0,1,96.26,45V38.1a27.57,27.57,0,0,0-17,6.82Zm-3.39,3.69a21.27,21.27,0,0,1,1.45-1.81l-4.94-5a26.82,26.82,0,0,0-7.24,17h3.06a1.2,1.2,0,0,1-.31-.91c.08-.33-.19-1.56-.11-1.75s.38-.41.53-.65,0-.58.11-.73.38-.49.61-.76.17-1,.83-1.28.77.06,1.23,0,.43-.65.43-.65-.18-.2.08-.65,1.9-.83,1.9-.83,0-.42,1-1.21a4.22,4.22,0,0,1,1.41-.82M77.16,63.81c0-.29,0-.59.07-.88a1.85,1.85,0,0,0-.8-.17c-.75,0-1.38.44-1.34,1.05Zm-4.77,2.7h-2.3a25.81,25.81,0,0,0,.73,4.94c.38-.18.33-.38.36-.64s.39-.21.51-.43.08-.23,0-.35a1.57,1.57,0,0,1-.56-.79c-.08-.41.22-.77.38-1.23s0-.6.2-1,.08,0,.72-.48m9.92,12a19.93,19.93,0,0,1-4.75-9.22.24.24,0,0,1-.13-.13.63.63,0,0,0-.77-.35s-.19,1.49-.19,1.57-.14.84-.48.79a.64.64,0,0,1-.48-.41s-.54,0-.62-.13-.52-.68-.07-1.1.43.42.76,0-.42-2.38.16-2.44c.38,0,1,.88,1.11.91a1.2,1.2,0,0,0,.45-.13c-.06-.45-.11-.91-.14-1.37h-3c-.14.32-.06,1.44-.35,1.62s-1.42-.2-1.54.52c-.17,1,.37.56.37,1.28s-.36.26-.12.94,1.33.92,1.52,1.72A4.93,4.93,0,0,0,74.6,74c.07.19-.46.61-.12,1.19A4,4,0,0,1,75.09,77a7.18,7.18,0,0,0,.27,2.68c.34,1.46.38.5.87,1.45a2.88,2.88,0,0,1,.29,1.47c.27.32.55.63.84.94Zm10.62,6.21a20.48,20.48,0,0,1-8.69-4.33L79.3,85.37a27.54,27.54,0,0,0,13.76,6.46A13.93,13.93,0,0,1,91.64,91a6.12,6.12,0,0,0-1.07-1.57,1.89,1.89,0,0,1-.6-1.56,1.13,1.13,0,0,0,.67-.5,4.19,4.19,0,0,1,1-1.94,4.85,4.85,0,0,1,1.27-.68m15.84-2.82c-.31.2-.61.38-.92.56l.08,0c.56.18,2.71.45,3.31,1a4.33,4.33,0,0,0,1.76.74c.78-.1,1.3-.14,1.65-.16l-.89-.89a6,6,0,0,1-1.14-.45c-.91-.45-.69.19-1.52-.27a8.26,8.26,0,0,0-2.33-.56m15.5-10.67a25.76,25.76,0,0,0,.68-4.76h-4.14c.28.29.62.48.81.67.42.42.27.91.35,1.33s.42.38,1.1,1,.61,1.24.91,1.61a.34.34,0,0,0,.29.13m-10.59,6.16c-.14.2-.3.39-.46.58l.13-.08c.38-.26.64.19.9-.23s.28-.76.5-1.11,1-.42,1.42-.38.41-.15.69.65a3.85,3.85,0,0,1,.17,1.51c.21.17-.39.8-.45,2.11,0,.7-.38.26-.35,1.15l-.11.14.49.49c0-.08.1-.19.17-.32.3-.69.72-1,1-.69a7,7,0,0,1,.48,1.67,26.85,26.85,0,0,0,5.55-9.77l-.19.06c-.27,0-1.21.21-2.06.32a14.11,14.11,0,0,1-1.62.11s-.48-.43-.67-.17-.35,1.06-1.06.91-.35-.91-.58-1,0,.32-.23.72-1,1.46-1.11,1.69-1.56.3-1.76.64a2.34,2.34,0,0,1-.8,1m-5.92-4,2,2a2.93,2.93,0,0,0-.27-1.21l-.9-.42-.36-.23.19-.44-.23-.09Zm-1.2,6.74a10,10,0,0,0,.88-.55.73.73,0,0,0-.77.37.67.67,0,0,1-.11.18M86.15,78.51A17.77,17.77,0,0,0,95,82.41c0,.1,0,.21,0,.33a1.23,1.23,0,0,0,.55.22,1.39,1.39,0,0,0,1.32-.46c.49-.46.38-.12.73-.19,0,0,.33-.55.67-1,.33-.16.48-.63.61-.67l0,1.89a17.84,17.84,0,0,0,6.64-1.85c-.38,0-.87-.63-1-.67s.18.71.22.9-1,.55-1.14.39c-.36-.58-.92-.67-.93-.54-.09.94-.49.69-.49.69-.92-1.33-1.22-.49-1.68-1s-.69-.28-.69-.28c-.33,0-.6.32-.93.44-.17,0-.32.52-.65.68-.34.46-.67,1-.67,1-.35.07-.24-.27-.73.19a1.39,1.39,0,0,1-1.32.46,1.23,1.23,0,0,1-.55-.22c0-.12,0-.23,0-.33a4.84,4.84,0,0,1,0-.74A3.64,3.64,0,0,1,95.26,80c.15-.25.6-.13,1-.12V78.25L96.21,78a.33.33,0,0,1,.05-.27V76a11.19,11.19,0,0,1-5.46-2.16Zm.48-11.24a4.17,4.17,0,0,1-.09-.51c-.21.21-.84.13-.77.42,0,.11.39.12.86.09M80.37,69.5a17.2,17.2,0,0,0,3.84,7.15L88.86,72q-.3-.36-.57-.75h0c-.41.19-.11.76-.34.95a1.93,1.93,0,0,0-.58.76c-.11.31-.88,1-1.25.65s-.1-2.12-.62-2.17c-.23,0-.11.15,0,.83s-.34.35-.57.23a4.4,4.4,0,0,1-1-.72c-.57-.51-.15-.83-.15-.83s-.46-.39-.62-.36-.07.36-.45.2-.38-.84-.38-.84a4.86,4.86,0,0,1-1.35-.3,5.15,5.15,0,0,0-.62-.16M96.26,47.73a17.67,17.67,0,0,0-10.14,4.05l2.67,2.67c.47,0,.39.45.91.59s.49-.11.91-.15.15.23.31.46.45-.15.45-.15c.42-.27.31.19.85,0s.23-.54.49-.87.19-.54.19-.92.5-.77.69-1,.42-.24.61.06-.23.5-.11.73.89-.09,2.17-.27Zm12.32,3.76A17.94,17.94,0,0,0,99,47.73v5.12a8.74,8.74,0,0,1,1.85.52.89.89,0,0,0,.19-.07c.61-1.11,1.41-.95,1.64-1.11s.16-.38.46-.69.79.07.87.34a3.39,3.39,0,0,1-.53,2.37,2.6,2.6,0,0,1-1.32.93,11.17,11.17,0,0,1,2.26,1.35l.5-.5a1.84,1.84,0,0,1,.09-.26l.52-.35,2.23-2.24a.29.29,0,0,1-.2-.08c-.26-.23-1-.31.38-1.18a5.74,5.74,0,0,1,.69-.39m2.8,2.77-.45-.53-.48.49c.26.31.74.82.61.59s.15-.15.32-.55m8.36-25.78c.32-.26.41.09.76.18s.36-.23.89,0a1.12,1.12,0,0,1,.71,1,6,6,0,0,0,.36.94c.09.25-.58.61-1,.39a3.3,3.3,0,0,1-.84-.93l-1.07-.8a.8.8,0,0,1,.17-.76M99.64,24s.26-.41.52-.31a6.06,6.06,0,0,0,.89.12l1.56-.57,1.25-.54.49-.26a4.52,4.52,0,0,1,3.52,1.07l.47.38-.16.46a9.75,9.75,0,0,1-1.51.76,2.91,2.91,0,0,1-1.07-.09l-.94-.13-2,.53a4.18,4.18,0,0,1-1.45-.13,1.82,1.82,0,0,1-.54-.27c-.72-.54-.93-.67-.93-.67L99.64,24m20.74,21.69c.28.28,1.09,1.31,1.43,1.69a.37.37,0,0,1,.11.24c-.48-.67-1-1.31-1.54-1.93" transform="translate(-22.13 -16.14)"/><path class="cls-2" d="M123.08,116.91c.28,0,3.88-.7,9.48-1.3s7.86-.36,11.91-1.38a15,15,0,0,0,7.88-4.79s.31-.14.21.14a21.45,21.45,0,0,1-9.32,8.84,25.48,25.48,0,0,1-15,2.09c-1.69-.35-4.13-1.09-6.63-1.78a32.53,32.53,0,0,0-7.34-1.28s-.2-.32.33-.4a30.4,30.4,0,0,0,6-1.73c3.54-1.58,6.48-5.09,8.82-7.29s6.21-6.12,8.47-7.11c0,0,.18,0,0,.26a23.66,23.66,0,0,0-2.73,4.71,21.57,21.57,0,0,1-3.65,6.38c-1.66,1.86-4,3.48-8.42,4.46,0,0-.28.15,0,.18M163,92.38a21.83,21.83,0,0,1-7.15,12.47c-4.85,4.38-8.92,6-11.21,6.6s-4.71.84-6.78,1.25a39.7,39.7,0,0,0-5.77,1.53s-.22.07-.09-.12a18.36,18.36,0,0,0,3.2-3.53c2.27-3,4.2-9.85,4.2-9.85a54.79,54.79,0,0,1,2.32-6,48,48,0,0,1,5.62-8.25s.34-.18.31,0a21.05,21.05,0,0,0-1.36,4c-.82,3.82-1,7.81-1.5,9.33a19.68,19.68,0,0,1-3.18,6.67,22.67,22.67,0,0,1-3.82,3.89c-.35.22.05.15.05.15a31.46,31.46,0,0,0,3-1.94,43.8,43.8,0,0,1,5-3.64c2.37-1.44,4.92-2.06,9.58-4.79a16.88,16.88,0,0,0,7.33-7.83s.22-.41.24,0M152.08,72.52a16.27,16.27,0,0,0-.08,3.62c.23,1.53,1.88,7.79,1.81,11.17a16.17,16.17,0,0,1-3,9.35l.16.1s3.55-5,5.25-7.21,5.29-5.52,7-7.45a16.55,16.55,0,0,0,3.91-8.53h.12a22.21,22.21,0,0,1-1.44,11.12,23.17,23.17,0,0,1-6.56,9,73.06,73.06,0,0,1-9.26,6.41,35.9,35.9,0,0,0-4.41,3s-.18,0-.18-.14a37.61,37.61,0,0,0,2.47-5.9A57.42,57.42,0,0,0,149,88.47c.14-2.77,1-12.82,2.85-15.94Zm-.9-15.63c-.06-.21-.34-.43-.37,0a43.64,43.64,0,0,0,1.32,10.43c.89,3.62,3.21,11.28,3.5,12.34a20.23,20.23,0,0,1,0,7.45s0,.43.24.18a63.81,63.81,0,0,1,3.74-5.39c1.26-1.41,4.31-5.18,5.17-7.17a26.78,26.78,0,0,0,2.47-12.47,24.8,24.8,0,0,0-1.88-8.92s-.25-.15-.18.06a18.18,18.18,0,0,1,.07,5A20.57,20.57,0,0,1,163.09,65c-1.29,2.75-2.55,6-2.92,7.11a45.36,45.36,0,0,0-1.07,5.47A9.65,9.65,0,0,1,158,80.72l-.19-.15a12.44,12.44,0,0,0,.93-4.67,16.26,16.26,0,0,0-2.1-8.35c-1.5-2.55-5.37-8.16-5.5-10.66m6.61-21.3c-.21-.25-.13.13-.13.13a13,13,0,0,1,1.84,7.39c-.08,4.7-.75,4.92-.86,9.06a74.26,74.26,0,0,0,.52,9.26h-.24a16.82,16.82,0,0,0-1.48-5.68c-1.58-3.47-8.18-8.76-8.18-8.76s-2.24-2.16-2.45-3.35c-.19-.28-.35,0-.35,0a32.66,32.66,0,0,0,2.39,7.53c1.88,4.17,6.14,8.32,7.39,10.76s2,2.72,2.93,7.39l.22,0a23.11,23.11,0,0,1,1.5-6.33c1.48-4.31,1.79-3.91,2.57-7.88a23,23,0,0,0,0-8.8c-.26-.82-1.7-6.48-5.64-10.7M157,52.5A14,14,0,0,0,154.52,49a38.09,38.09,0,0,0-3.92-3.74c-1.75-1.41-3.74-2.66-5-3.82-2.54-2.33-5.29-6.66-5.21-10.53a18.55,18.55,0,0,0,2.88,4c1.67,1.64,5.74,3.88,7.42,5.43a14.11,14.11,0,0,1,4.2,6h.29s-1.8-4.75-2.24-6.51a61.29,61.29,0,0,0-1.87-7.56A9.62,9.62,0,0,0,147,27c-.06,0,.17-.15.17-.15s7,1.06,9.68,10.31c.78,2.68,0,8.86.12,11.31s.23,4,.23,4ZM133.42,20.39s2.16.75,4.57,1.66a18.42,18.42,0,0,1,7.12,4.42A20.89,20.89,0,0,1,150,36a8.39,8.39,0,0,0,1,2.32c.12,0-.08.21-.08.21a97.68,97.68,0,0,1-8-6.94c-1.78-2-4-5.74-5.56-7.31s-3.91-3.84-3.91-3.84M54.5,121.54s6,7,15,7a20.88,20.88,0,0,0,12-3.89,86.3,86.3,0,0,1,7.85-5c2.23-1.11,5.59-.19,5.59-.19a34,34,0,0,0-7.3,4,53.07,53.07,0,0,0-8.45,7.11l3.07,2.58a42.42,42.42,0,0,1,6.43-6.76c4.22-3.63,6.64-5,9.27-6A46.74,46.74,0,0,1,113.57,133l3.08-2.59s-7-7.23-15.68-10.95c0,0,.82-.5,4.52-.13,1.62.16,3.14,1.45,4.93,2.7a52.29,52.29,0,0,0,7.61,4.64,24.13,24.13,0,0,0,8.09,1.7,20.59,20.59,0,0,0,15.16-7.15s0-.2-.18-.13c-3.28,1.66-5,2.91-10.38,2.78-2.91-.07-6.53-.91-11.2-3s-7.74-3.52-13.16-3.57-8,.89-8.52,1.1a19.46,19.46,0,0,0-7.39-1.19,28,28,0,0,0-12,2.74c-2.75,1.32-8,4.27-14.14,4.25a17.65,17.65,0,0,1-9.54-2.78c-.13,0-.22.18-.22.18m18.24-4.39c-.28,0-3.95-.74-9.55-1.34s-8.08-.28-12.14-1.3a14.78,14.78,0,0,1-7.82-4.68s-.3-.14-.21.13a21.6,21.6,0,0,0,9.33,8.79C58.8,122,66,121,67.69,120.67s4.12-1.1,6.62-1.78a32,32,0,0,1,7.34-1.28s.2-.32-.34-.41a15.67,15.67,0,0,1-6-1.72c-4.89-2.51-6.67-4.94-9-7.14s-6.32-6-8.57-7c0,0-.19,0,0,.27a22.47,22.47,0,0,1,2.72,4.64,21.23,21.23,0,0,0,3.71,6.27c1.67,1.86,4.14,3.52,8.59,4.48,0,0,.27.16,0,.19M32.43,92.84a22.64,22.64,0,0,0,7.27,12.49c4.84,4.38,9.29,6.06,11.61,6.57s4.67.76,6.74,1.18a39.23,39.23,0,0,1,5.57,1.41s.22.08.09-.12a20.36,20.36,0,0,1-3.19-3.57c-2.27-3-4.34-9.88-4.34-9.88a48.8,48.8,0,0,0-2.08-5.16,55.34,55.34,0,0,0-6-8.87s-.34-.19-.3,0a18.21,18.21,0,0,1,1.33,3.87c.48,2.32,1.19,7.83,1.67,9.35A20.43,20.43,0,0,0,54,107a20.78,20.78,0,0,0,3.85,3.85c.33.22-.07.16-.07.16a31.63,31.63,0,0,1-3.14-2,30.16,30.16,0,0,0-4.11-3c-2.38-1.43-5.66-2.57-10.32-5.3s-6.61-5.74-7.56-7.79c0,0-.22-.42-.25,0M43.09,73a15,15,0,0,1,.14,3.7c-.22,1.51-1.72,7.68-1.65,11.07a16.54,16.54,0,0,0,3.09,9.37l-.15.08s-3.56-5-5.26-7.2-5.39-5.37-7-7.45a17.91,17.91,0,0,1-4.13-8.4H28a22.56,22.56,0,0,0,1.54,11,23.44,23.44,0,0,0,6.62,9,73.64,73.64,0,0,0,9.31,6.34,35.58,35.58,0,0,1,4.42,3s.18,0,.18-.14a37.61,37.61,0,0,1-2.47-5.9,57.39,57.39,0,0,1-1.11-8.62c-.14-2.76-1.25-12.86-3.11-16Zm.83-15.89c.07-.22.35-.43.37,0a70.67,70.67,0,0,1-1.12,10.49c-.82,3.64-3.26,11.27-3.5,12.34a27.35,27.35,0,0,0,0,7.45s0,.43-.25.18-2.52-3.83-3.78-5.23-4.4-5.26-5.25-7.24a30.59,30.59,0,0,1-2.52-13.6c.42-6.15,1.82-7.64,1.82-7.64s.25-.15.19.07a16.53,16.53,0,0,0-.08,4.87,21,21,0,0,0,2.51,7.24A39.17,39.17,0,0,1,35,72.63a36.78,36.78,0,0,1,1.18,5.21,9.9,9.9,0,0,0,1,3.16l.12-.06a11.77,11.77,0,0,1-.86-4.77,15.87,15.87,0,0,1,2.11-8.35C40,65.2,43.79,59.6,43.92,57.1m-7-21.05a.2.2,0,0,1,.36,0s-1.94,2.34-1.86,7,.87,5.52,1,9.67a74,74,0,0,1-.49,9.12h.25a14.43,14.43,0,0,1,1.63-6.1C39.49,52.41,46,47.07,46,47.07s2-2,2.21-3.2c.19-.29.31.06.31.06a26.11,26.11,0,0,1-2.2,7.2c-1.87,4.17-5.8,8.22-7.06,10.66s-2.31,3.34-3.25,8l-.21,0a29.15,29.15,0,0,0-1.62-6.51c-1.48-4.3-1.85-3.66-2.63-7.62a25.79,25.79,0,0,1,.06-9.32,24.13,24.13,0,0,1,5.35-10.32M38,52.93a14,14,0,0,1,2.46-3.49,40,40,0,0,1,3.91-3.74c1.75-1.41,3.76-2.83,5-4,2.54-2.33,4.91-6.64,4.84-10.51a13.78,13.78,0,0,1-2.61,3.94c-1.67,1.64-5.76,4-7.44,5.55a14.33,14.33,0,0,0-4.27,6.12l-.12,0s1.72-4.86,2.16-6.63a59.91,59.91,0,0,1,1.88-7.57,9.12,9.12,0,0,1,3.94-5.18c.06,0,0-.19,0-.19s-7.15,1.05-9.84,10.31c-.77,2.68.21,9,.06,11.42s-.17,4-.17,4H38l.1-.17M61,20.79s-1.67.58-4.09,1.49a19.18,19.18,0,0,0-7.27,4.48,21.11,21.11,0,0,0-4.88,9.6c-.43,1.47-.83,2.5-.83,2.5a99.08,99.08,0,0,0,8-6.93c1.79-2,3.93-5.9,5.52-7.48S61,20.79,61,20.79" transform="translate(-22.13 -16.14)"/></svg>